<?xml version="1.0" encoding="UTF-8"?>
<!--Generator: Apple Native CoreSVG 341-->
<!DOCTYPE svg
PUBLIC "-//W3C//DTD SVG 1.1//EN"
       "http://www.w3.org/Graphics/SVG/1.1/DTD/svg11.dtd">
<svg version="1.1" xmlns="http://www.w3.org/2000/svg" xmlns:xlink="http://www.w3.org/1999/xlink" viewBox="0 0 12.7638 12.7832">
 <g>
  <rect height="12.7832" opacity="0" width="12.7638" x="0" y="0"/>
  <path d="M7.16798 11.9824L7.16798 0.79102C7.16798 0.3711 6.81642 0 6.38672 0C5.95704 0 5.5957 0.3711 5.5957 0.79102L5.5957 11.9824C5.5957 12.4023 5.95704 12.7734 6.38672 12.7734C6.81642 12.7734 7.16798 12.4023 7.16798 11.9824ZM0.791016 7.17774L11.9824 7.17774C12.4023 7.17774 12.7637 6.8164 12.7637 6.38672C12.7637 5.95704 12.4023 5.5957 11.9824 5.5957L0.791016 5.5957C0.361336 5.5957 4.44089e-16 5.95704 4.44089e-16 6.38672C4.44089e-16 6.8164 0.361336 7.17774 0.791016 7.17774Z" fill="black" fill-opacity="0.85"/>
 </g>
</svg>
