<?xml version="1.0" encoding="UTF-8"?>
<!--Generator: Apple Native CoreSVG 341-->
<!DOCTYPE svg
PUBLIC "-//W3C//DTD SVG 1.1//EN"
       "http://www.w3.org/Graphics/SVG/1.1/DTD/svg11.dtd">
<svg version="1.1" xmlns="http://www.w3.org/2000/svg" xmlns:xlink="http://www.w3.org/1999/xlink" viewBox="0 0 13.4182 13.7402">
 <g>
  <rect height="13.7402" opacity="0" width="13.4182" x="0" y="0"/>
  <path d="M5.176 13.7402C5.55686 13.7402 5.8596 13.5742 6.07444 13.2422L13.1936 1.98242C13.3596 1.72852 13.4182 1.52344 13.4182 1.31836C13.4182 0.839836 13.1057 0.517576 12.6174 0.517576C12.2659 0.517576 12.0705 0.634776 11.8557 0.976556L5.13694 11.7578L1.60178 6.9922C1.37718 6.68946 1.16234 6.5625 0.84006 6.5625C0.35178 6.5625 0.000224 6.9043 0.000224 7.39258C0.000224 7.59766 0.08812 7.82226 0.25414 8.03712L4.24828 13.2227C4.5217 13.5742 4.79514 13.7402 5.176 13.7402Z" fill="black" fill-opacity="0.85"/>
 </g>
</svg>
